<?xml version="1.0" standalone="no"?>
<!DOCTYPE svg PUBLIC "-//W3C//DTD SVG 20010904//EN"
 "http://www.w3.org/TR/2001/REC-SVG-20010904/DTD/svg10.dtd">
<svg version="1.0" xmlns="http://www.w3.org/2000/svg"
 width="256.000000pt" height="256.000000pt" viewBox="0 0 256.000000 256.000000"
 preserveAspectRatio="xMidYMid meet">
<metadata>
Created by potrace 1.11, written by Peter Selinger 2001-2013
</metadata>
<g transform="translate(0.000000,256.000000) scale(0.100000,-0.100000)"
fill="#000000" stroke="none">
<path d="M205 2442 c-99 -34 -174 -117 -195 -215 -8 -37 -10 -325 -8 -977 3
-922 3 -925 24 -971 28 -60 93 -125 153 -153 l46 -21 1055 0 1055 0 46 21 c60
28 125 93 153 153 l21 46 0 955 0 955 -21 46 c-12 26 -41 66 -64 89 -23 23
-63 52 -89 64 l-46 21 -1040 2 c-966 2 -1044 1 -1090 -15z m2122 -215 l28 -27
3 -170 3 -170 -1081 0 -1081 0 3 169 c3 152 5 171 23 191 11 12 29 26 40 31
11 4 473 7 1027 6 l1008 -2 27 -28z m31 -1217 l-3 -650 -28 -27 -27 -28 -1020
0 -1020 0 -27 28 -28 27 -3 650 -2 650 1080 0 1080 0 -2 -650z"/>
<path d="M415 2151 c-62 -26 -81 -110 -34 -156 14 -14 42 -28 62 -32 32 -5 41
-1 72 30 47 47 48 86 1 133 -34 34 -61 41 -101 25z"/>
<path d="M765 2151 c-62 -26 -81 -110 -34 -156 14 -14 42 -28 62 -32 32 -5 41
-1 72 30 47 47 48 86 1 133 -34 34 -61 41 -101 25z"/>
<path d="M1295 1458 c-9 -24 -275 -972 -275 -981 0 -4 46 -6 102 -5 l103 3
137 485 c75 267 137 491 138 498 0 9 -26 12 -100 12 -71 0 -102 -4 -105 -12z"/>
<path d="M574 1164 c-120 -103 -219 -190 -219 -194 0 -9 435 -380 445 -380 4
0 35 33 68 74 l61 74 -134 113 c-74 62 -135 116 -135 119 0 3 61 57 135 119
l134 113 -61 74 c-33 41 -64 74 -68 74 -4 0 -106 -84 -226 -186z"/>
<path d="M1682 1276 l-61 -74 134 -113 c74 -62 135 -116 135 -119 0 -3 -61
-57 -135 -119 l-134 -113 61 -74 c33 -41 64 -74 68 -74 10 0 445 371 445 380
0 9 -435 380 -445 380 -4 0 -35 -33 -68 -74z"/>
</g>
</svg>
