<svg width="48" height="44" viewBox="0 0 48 44" fill="none" xmlns="http://www.w3.org/2000/svg">
<path fill-rule="evenodd" clip-rule="evenodd" d="M0.373179 0.533689C0.669896 0.189603 1.10339 -0.00581477 1.55779 0.000131881L46.4423 0.00771755C46.8965 0.00177091 47.3302 0.197191 47.6269 0.541277C47.9236 0.885567 48.0528 1.34325 47.9802 1.79171L41.4516 41.8701C41.3298 42.6222 40.6755 43.1718 39.9137 43.1619H8.59391C7.57867 43.1535 6.7162 42.4176 6.54847 41.4165L0.0198651 1.78413C-0.0529301 1.33546 0.0764615 0.877774 0.373179 0.533689ZM19.0518 28.6439H29.0483L31.4705 14.5028H16.3451L19.0518 28.6439Z" fill="#2684FF"/>
<path d="M45.9039 14.5027H31.4704L29.0483 28.6438H19.0517L7.24805 42.6543C7.62207 42.9779 8.09924 43.1577 8.59383 43.1618H39.9214C40.6832 43.1717 41.3373 42.6221 41.4593 41.87L45.9039 14.5027Z" fill="url(#paint0_linear)"/>
<defs>
<linearGradient id="paint0_linear" x1="36.686" y1="9.62049" x2="20.0128" y2="33.2943" gradientUnits="userSpaceOnUse">
<stop offset="0.18" stop-color="#0052CC"/>
<stop offset="1" stop-color="#2684FF"/>
</linearGradient>
</defs>
</svg>
