<svg width="28" height="30" viewBox="0 0 28 30" fill="none" xmlns="http://www.w3.org/2000/svg">
<g clip-path="url(#clip0)">
<path d="M8.47904 28.0868C5.37109 27.0445 2.75194 26.1127 2.65869 26.016C2.53083 25.8834 2.18382 22.7721 1.24713 13.3597C0.564018 6.49549 0.00592913 0.764394 0.00693043 0.623978C0.0116285 -0.0365632 -0.79806 0.000373729 13.6772 0.000373729C22.6212 0.000373729 27.0515 0.0401075 27.204 0.121684C27.362 0.206276 27.4306 0.367595 27.4306 0.654648C27.4306 0.881057 26.8736 6.64043 26.1929 13.4533C25.155 23.8398 24.9232 25.8712 24.7573 26.0321C24.5479 26.2353 14.5828 30.0069 14.2971 29.9911C14.2051 29.986 11.587 29.1291 8.47904 28.0868V28.0868ZM19.0484 26.9461L23.7536 25.1809L24.8979 13.6746C25.5273 7.34618 26.0713 1.97059 26.1069 1.72889L26.1715 1.28944H13.7196H1.26762L1.33709 1.84608C1.3753 2.15223 1.91555 7.51795 2.53765 13.7699C3.15975 20.0219 3.67581 25.1431 3.68445 25.1503C3.70348 25.1664 14.2269 28.6889 14.2951 28.7021C14.3215 28.7071 16.4605 27.917 19.0484 26.9461ZM10.5717 22.4456C9.38812 22.1021 8.35286 21.7497 8.27108 21.6626C8.12461 21.5066 7.50875 18.6514 7.50875 18.1284C7.50875 17.9806 7.57203 17.7965 7.64938 17.7191C7.83871 17.5298 8.38615 17.5407 8.54909 17.737C8.62143 17.8241 8.8063 18.5141 8.95991 19.2702C9.11352 20.0263 9.28491 20.6854 9.34078 20.7349C9.39664 20.7844 9.75875 20.9113 10.1455 21.017C10.5322 21.1226 11.2046 21.3113 11.6396 21.4363L12.4306 21.6635V14.5819V7.50037H8.86305C5.30927 7.50037 5.29477 7.49938 5.11305 7.23992C4.87195 6.89571 4.88294 6.72775 5.165 6.44569C5.38999 6.2207 5.55563 6.21131 9.29908 6.21131C12.639 6.21131 13.2362 6.2375 13.4592 6.39374L13.7197 6.57616V14.6471C13.7197 23.4944 13.7519 23.0965 13.0375 23.0783C12.8648 23.0739 11.7552 22.7892 10.5717 22.4456ZM15.1494 22.9457C14.9652 22.7615 14.9688 22.2091 15.1552 22.0617C15.2358 21.998 16.0663 21.6943 17.0009 21.3868C17.9355 21.0793 18.7206 20.8101 18.7456 20.7885C18.7934 20.7473 19.8015 15.3992 19.809 15.1469C19.8124 15.0348 19.3025 15.0004 17.6377 15.0004C16.3621 15.0004 15.3683 14.9502 15.2354 14.8791C15.0179 14.7627 15.0087 14.5915 15.0087 10.667V6.57616L15.2692 6.39374C15.4895 6.23943 16.0234 6.21131 18.7339 6.21131C20.585 6.21131 22.0281 6.25943 22.1511 6.32524C22.2682 6.38791 22.3964 6.52357 22.4359 6.62671C22.5189 6.84286 21.8519 9.5886 21.6603 9.81936C21.4882 10.0268 20.8633 9.95095 20.7087 9.70391C20.6193 9.5611 20.6288 9.29704 20.7424 8.76641C20.8294 8.36013 20.9258 7.90907 20.9566 7.76405L21.0126 7.50037H18.5966H16.1806V10.6058V13.7113H18.4528C20.5058 13.7113 20.7513 13.7327 20.9983 13.9327L21.2717 14.154L20.6028 17.8151C20.2349 19.8287 19.8766 21.5454 19.8064 21.6299C19.6616 21.8044 15.8978 23.0863 15.5301 23.0863C15.398 23.0863 15.2267 23.023 15.1494 22.9457H15.1494Z" fill="#070707"/>
</g>
<defs>
<clipPath id="clip0">
<rect width="27.7734" height="30" fill="white"/>
</clipPath>
</defs>
</svg>
